# xmcd
#
# Track frame offsets:
#	150
#	20784
#	44206
#	74929
#	88597
#	121465
#	160629
#	177304
#	194315
#	210217
#	224983
#	258547
#	274388
#
# Disc length: 4439 seconds
# Revision: 0
# Processed by: cddbd v1.5.2PL0 Copyright (c) Steve Scherf et al.
# Submitted via: dBpowerAMP V12.0
#
DISCID=d711550d
DTITLE=North Mississippi Allstars - Miramar Theater, Milwaukee, WI
DYEAR=2002
DGENRE=Blues
TTITLE0=Sugartown
TTITLE1=Goin' Down South
TTITLE2=Po Black Maddie >
TTITLE3=Skinny Woman >
TTITLE4=Po Black Maddie
TTITLE5=Freedom Highway
TTITLE6=I Got The Blues
TTITLE7=So Hard To Please
TTITLE8=Circle In The Sky
TTITLE9=51 Phantom
TTITLE10=Lord Have Mercy
TTITLE11=Up Over Yonder
TTITLE12=Station Blues (Sittin' On Top Of The World)
EXTD=
EXTT0=
EXTT1=
EXTT2=
EXTT3=
EXTT4=
EXTT5=
EXTT6=
EXTT7=
EXTT8=
EXTT9=
EXTT10=
EXTT11=
EXTT12=
PLAYORDER=
